<mxfile host="app.diagrams.net" modified="2024-06-02T09:19:25.496Z" agent="Mozilla/5.0 (Macintosh; Intel Mac OS X 10_15_7) AppleWebKit/537.36 (KHTML, like Gecko) Chrome/124.0.0.0 Safari/537.36 Edg/124.0.0.0" etag="26UcgbO33YUoq3c6t9WG" version="24.4.13" type="github">
  <diagram name="Page-1" id="e7e014a7-5840-1c2e-5031-d8a46d1fe8dd">
    <mxGraphModel dx="2115" dy="564" grid="1" gridSize="10" guides="1" tooltips="1" connect="1" arrows="1" fold="1" page="1" pageScale="1" pageWidth="1169" pageHeight="826" background="none" math="0" shadow="0">
      <root>
        <mxCell id="0" />
        <mxCell id="1" parent="0" />
        <mxCell id="2" value="客户" style="swimlane;whiteSpace=wrap" parent="1" vertex="1">
          <mxGeometry x="164.5" y="128" width="280" height="700" as="geometry" />
        </mxCell>
        <mxCell id="9OpOfqLrlk6VySGfPO1n-44" value="" style="edgeStyle=orthogonalEdgeStyle;rounded=0;orthogonalLoop=1;jettySize=auto;html=1;" parent="2" source="5" target="9OpOfqLrlk6VySGfPO1n-41" edge="1">
          <mxGeometry relative="1" as="geometry" />
        </mxCell>
        <mxCell id="5" value="" style="ellipse;shape=startState;fillColor=#000000;strokeColor=#ff0000;" parent="2" vertex="1">
          <mxGeometry x="100" y="40" width="30" height="30" as="geometry" />
        </mxCell>
        <mxCell id="9OpOfqLrlk6VySGfPO1n-43" style="edgeStyle=orthogonalEdgeStyle;rounded=0;orthogonalLoop=1;jettySize=auto;html=1;entryX=0.5;entryY=0;entryDx=0;entryDy=0;" parent="2" source="9OpOfqLrlk6VySGfPO1n-41" target="9OpOfqLrlk6VySGfPO1n-42" edge="1">
          <mxGeometry relative="1" as="geometry" />
        </mxCell>
        <mxCell id="9OpOfqLrlk6VySGfPO1n-41" value="选择商品" style="rounded=1;whiteSpace=wrap;html=1;" parent="2" vertex="1">
          <mxGeometry x="55.5" y="112" width="120" height="60" as="geometry" />
        </mxCell>
        <mxCell id="9OpOfqLrlk6VySGfPO1n-42" value="提交订单" style="rounded=1;whiteSpace=wrap;html=1;" parent="2" vertex="1">
          <mxGeometry x="55.5" y="225" width="120" height="60" as="geometry" />
        </mxCell>
        <mxCell id="9OpOfqLrlk6VySGfPO1n-48" value="支付" style="rounded=1;whiteSpace=wrap;html=1;" parent="2" vertex="1">
          <mxGeometry x="55.5" y="312" width="120" height="60" as="geometry" />
        </mxCell>
        <mxCell id="9OpOfqLrlk6VySGfPO1n-60" value="确认收货" style="rounded=1;whiteSpace=wrap;html=1;" parent="2" vertex="1">
          <mxGeometry x="55.5" y="452" width="120" height="60" as="geometry" />
        </mxCell>
        <mxCell id="3" value="商家" style="swimlane;whiteSpace=wrap" parent="1" vertex="1">
          <mxGeometry x="444.5" y="128" width="280" height="700" as="geometry" />
        </mxCell>
        <mxCell id="9OpOfqLrlk6VySGfPO1n-45" value="生成订单（未支付）" style="rounded=1;whiteSpace=wrap;html=1;" parent="3" vertex="1">
          <mxGeometry x="65.5" y="225" width="120" height="60" as="geometry" />
        </mxCell>
        <mxCell id="9OpOfqLrlk6VySGfPO1n-56" style="edgeStyle=orthogonalEdgeStyle;rounded=0;orthogonalLoop=1;jettySize=auto;html=1;" parent="3" source="9OpOfqLrlk6VySGfPO1n-50" edge="1">
          <mxGeometry relative="1" as="geometry">
            <mxPoint x="355.5" y="392" as="targetPoint" />
          </mxGeometry>
        </mxCell>
        <mxCell id="9OpOfqLrlk6VySGfPO1n-50" value="修改订单(确认支付)" style="rounded=1;whiteSpace=wrap;html=1;" parent="3" vertex="1">
          <mxGeometry x="65.5" y="362" width="120" height="60" as="geometry" />
        </mxCell>
        <mxCell id="gEXENy3ACHQVxW5MdrPx-6" value="" style="edgeStyle=orthogonalEdgeStyle;rounded=0;orthogonalLoop=1;jettySize=auto;html=1;" edge="1" parent="3" source="9OpOfqLrlk6VySGfPO1n-79" target="gEXENy3ACHQVxW5MdrPx-5">
          <mxGeometry relative="1" as="geometry" />
        </mxCell>
        <mxCell id="9OpOfqLrlk6VySGfPO1n-79" value="修改订单（已支付）" style="rounded=1;whiteSpace=wrap;html=1;" parent="3" vertex="1">
          <mxGeometry x="65.5" y="572" width="120" height="60" as="geometry" />
        </mxCell>
        <mxCell id="gEXENy3ACHQVxW5MdrPx-5" value="" style="ellipse;html=1;shape=endState;fillColor=#000000;strokeColor=#ff0000;" vertex="1" parent="3">
          <mxGeometry x="105.5" y="662" width="30" height="30" as="geometry" />
        </mxCell>
        <mxCell id="9OpOfqLrlk6VySGfPO1n-47" style="edgeStyle=orthogonalEdgeStyle;rounded=0;orthogonalLoop=1;jettySize=auto;html=1;entryX=0;entryY=0.5;entryDx=0;entryDy=0;" parent="1" source="9OpOfqLrlk6VySGfPO1n-42" target="9OpOfqLrlk6VySGfPO1n-45" edge="1">
          <mxGeometry relative="1" as="geometry" />
        </mxCell>
        <mxCell id="9OpOfqLrlk6VySGfPO1n-49" style="edgeStyle=orthogonalEdgeStyle;rounded=0;orthogonalLoop=1;jettySize=auto;html=1;entryX=1;entryY=0.5;entryDx=0;entryDy=0;" parent="1" source="9OpOfqLrlk6VySGfPO1n-45" target="9OpOfqLrlk6VySGfPO1n-48" edge="1">
          <mxGeometry relative="1" as="geometry">
            <Array as="points">
              <mxPoint x="570" y="470" />
            </Array>
          </mxGeometry>
        </mxCell>
        <mxCell id="9OpOfqLrlk6VySGfPO1n-52" value=" 仓库" style="swimlane;whiteSpace=wrap" parent="1" vertex="1">
          <mxGeometry x="724.5" y="128" width="280" height="700" as="geometry" />
        </mxCell>
        <mxCell id="9OpOfqLrlk6VySGfPO1n-59" value="" style="edgeStyle=orthogonalEdgeStyle;rounded=0;orthogonalLoop=1;jettySize=auto;html=1;" parent="9OpOfqLrlk6VySGfPO1n-52" source="9OpOfqLrlk6VySGfPO1n-57" target="9OpOfqLrlk6VySGfPO1n-58" edge="1">
          <mxGeometry relative="1" as="geometry" />
        </mxCell>
        <mxCell id="9OpOfqLrlk6VySGfPO1n-57" value="发货" style="rounded=1;whiteSpace=wrap;html=1;" parent="9OpOfqLrlk6VySGfPO1n-52" vertex="1">
          <mxGeometry x="80.5" y="362" width="120" height="60" as="geometry" />
        </mxCell>
        <mxCell id="9OpOfqLrlk6VySGfPO1n-58" value="送达" style="rounded=1;whiteSpace=wrap;html=1;" parent="9OpOfqLrlk6VySGfPO1n-52" vertex="1">
          <mxGeometry x="80.5" y="452" width="120" height="60" as="geometry" />
        </mxCell>
        <mxCell id="9OpOfqLrlk6VySGfPO1n-61" style="edgeStyle=orthogonalEdgeStyle;rounded=0;orthogonalLoop=1;jettySize=auto;html=1;entryX=1;entryY=0.5;entryDx=0;entryDy=0;" parent="1" source="9OpOfqLrlk6VySGfPO1n-58" target="9OpOfqLrlk6VySGfPO1n-60" edge="1">
          <mxGeometry relative="1" as="geometry" />
        </mxCell>
        <mxCell id="9OpOfqLrlk6VySGfPO1n-62" value="支付宝" style="swimlane;whiteSpace=wrap" parent="1" vertex="1">
          <mxGeometry x="-115.5" y="128" width="280" height="700" as="geometry" />
        </mxCell>
        <mxCell id="9OpOfqLrlk6VySGfPO1n-71" value="确认支付信息" style="rounded=1;whiteSpace=wrap;html=1;" parent="9OpOfqLrlk6VySGfPO1n-62" vertex="1">
          <mxGeometry x="80.5" y="312" width="120" height="60" as="geometry" />
        </mxCell>
        <mxCell id="9OpOfqLrlk6VySGfPO1n-82" value="实际货款支付" style="rounded=1;whiteSpace=wrap;html=1;" parent="9OpOfqLrlk6VySGfPO1n-62" vertex="1">
          <mxGeometry x="80" y="452" width="120" height="60" as="geometry" />
        </mxCell>
        <mxCell id="9OpOfqLrlk6VySGfPO1n-72" style="edgeStyle=orthogonalEdgeStyle;rounded=0;orthogonalLoop=1;jettySize=auto;html=1;" parent="1" source="9OpOfqLrlk6VySGfPO1n-48" target="9OpOfqLrlk6VySGfPO1n-71" edge="1">
          <mxGeometry relative="1" as="geometry" />
        </mxCell>
        <mxCell id="9OpOfqLrlk6VySGfPO1n-73" style="edgeStyle=orthogonalEdgeStyle;rounded=0;orthogonalLoop=1;jettySize=auto;html=1;entryX=0;entryY=0.5;entryDx=0;entryDy=0;" parent="1" source="9OpOfqLrlk6VySGfPO1n-71" target="9OpOfqLrlk6VySGfPO1n-50" edge="1">
          <mxGeometry relative="1" as="geometry">
            <Array as="points">
              <mxPoint x="25" y="520" />
            </Array>
          </mxGeometry>
        </mxCell>
        <mxCell id="9OpOfqLrlk6VySGfPO1n-80" style="edgeStyle=orthogonalEdgeStyle;rounded=0;orthogonalLoop=1;jettySize=auto;html=1;exitX=0.5;exitY=1;exitDx=0;exitDy=0;" parent="1" source="9OpOfqLrlk6VySGfPO1n-82" target="9OpOfqLrlk6VySGfPO1n-79" edge="1">
          <mxGeometry relative="1" as="geometry">
            <mxPoint x="319.99999999999955" y="730" as="sourcePoint" />
            <Array as="points">
              <mxPoint x="25" y="730" />
            </Array>
          </mxGeometry>
        </mxCell>
        <mxCell id="9OpOfqLrlk6VySGfPO1n-84" style="edgeStyle=orthogonalEdgeStyle;rounded=0;orthogonalLoop=1;jettySize=auto;html=1;entryX=1;entryY=0.5;entryDx=0;entryDy=0;" parent="1" source="9OpOfqLrlk6VySGfPO1n-60" target="9OpOfqLrlk6VySGfPO1n-82" edge="1">
          <mxGeometry relative="1" as="geometry" />
        </mxCell>
      </root>
    </mxGraphModel>
  </diagram>
</mxfile>
